<?xml version="1.0" standalone="no"?>
<!DOCTYPE svg PUBLIC "-//W3C//DTD SVG 20010904//EN"
 "http://www.w3.org/TR/2001/REC-SVG-20010904/DTD/svg10.dtd">
<svg version="1.0" xmlns="http://www.w3.org/2000/svg"
 width="512.000000pt" height="512.000000pt" viewBox="0 0 512.000000 512.000000"
 preserveAspectRatio="xMidYMid meet">
<metadata>
Created by potrace 1.11, written by Peter Selinger 2001-2013
</metadata>
<g transform="translate(0.000000,512.000000) scale(0.100000,-0.100000)"
fill="#000000" stroke="none">
<path d="M2469 4616 c-2 -2 -38 -6 -79 -9 -166 -13 -353 -45 -525 -89 -44 -11
-91 -22 -105 -24 -14 -3 -68 -16 -120 -30 -309 -83 -554 -195 -749 -342 -100
-74 -141 -113 -212 -201 -116 -142 -168 -284 -165 -442 4 -146 49 -267 151
-399 43 -55 143 -155 200 -199 l30 -23 1 -1165 c0 -1129 1 -1166 19 -1179 16
-12 270 -14 1569 -14 853 0 1556 4 1562 8 6 4 48 59 92 122 44 63 89 123 98
132 16 17 17 91 18 1126 l1 1109 101 99 c175 171 241 297 249 474 19 403 -385
765 -1055 944 -52 14 -117 30 -145 36 -27 5 -61 12 -75 15 -13 2 -42 7 -65 10
-22 3 -51 8 -65 10 -14 2 -52 7 -85 11 -33 3 -69 8 -80 11 -23 6 -561 14 -566
9z"/>
</g>
</svg>
